<svg width="22" height="22" viewBox="0 0 22 22" fill="none" xmlns="http://www.w3.org/2000/svg">
<path d="M8.60659 13.3646C9.50659 14.2276 10.5616 14.9296 11.7276 15.4276L12.2466 15.6486L13.8416 14.0286C14.2376 13.6266 14.8106 13.4526 15.3636 13.5686L19.2276 14.3776C19.8816 14.5166 20.3486 15.0936 20.3486 15.7616V18.5436C20.3486 19.5386 19.5426 20.3446 18.5476 20.3446H17.6926C13.7586 20.3446 9.87659 19.0416 6.94059 16.4236C6.69859 16.2086 6.46359 15.9856 6.23459 15.7576L6.27159 15.7946C6.04259 15.5656 5.82059 15.3306 5.60559 15.0886C2.98659 12.1536 1.68359 8.27164 1.68359 4.33764V3.48264C1.68359 2.48764 2.48959 1.68164 3.48459 1.68164H6.26659C6.93459 1.68164 7.51159 2.14864 7.65059 2.80264L8.46059 6.66664C8.57559 7.21864 8.40259 7.79264 8.00059 8.18864L6.38059 9.78364L6.60159 10.3026C7.09959 11.4676 7.74259 12.4646 8.60659 13.3646Z" stroke="#0D0D0D" stroke-width="1.5" stroke-miterlimit="10" stroke-linecap="round" stroke-linejoin="round"/>
</svg>
