<svg width="24" height="24" viewBox="0 0 24 24" fill="none" xmlns="http://www.w3.org/2000/svg">
<path d="M13.4122 22H10.0265C9.46092 22 9.00089 21.5431 9.00089 20.9813V13.396H7.02557C6.46004 13.396 6 12.9389 6 12.3773V9.12702C6 8.5653 6.46004 8.10836 7.02557 8.10836H9.00089V6.48071C9.00089 4.86684 9.51109 3.49378 10.4762 2.51021C11.4456 1.52215 12.8004 1 14.3941 1L16.9762 1.00417C17.5408 1.00513 18 1.46207 18 2.02283V5.04068C18 5.6024 17.5401 6.05934 16.9748 6.05934L15.2362 6.05998C14.706 6.05998 14.571 6.16557 14.5421 6.19793C14.4946 6.2516 14.4379 6.40333 14.4379 6.8223V8.1082H16.8441C17.0252 8.1082 17.2007 8.15258 17.3516 8.23621C17.6769 8.41678 17.8792 8.7582 17.8792 9.12718L17.8779 12.3775C17.8779 12.9389 17.4179 13.3959 16.8523 13.3959H14.4379V20.9813C14.4379 21.5431 13.9777 22 13.4122 22ZM10.2403 20.7689H13.1983V12.8449C13.1983 12.4698 13.5056 12.1647 13.8831 12.1647H16.6384L16.6396 9.33947H13.8829C13.5054 9.33947 13.1983 9.03442 13.1983 8.65935V6.8223C13.1983 6.34132 13.2475 5.79434 13.613 5.38322C14.0547 4.88623 14.7507 4.82887 15.2359 4.82887L16.7605 4.82823V2.23495L14.3931 2.23111C11.8319 2.23111 10.2403 3.85956 10.2403 6.48071V8.65935C10.2403 9.03426 9.93322 9.33947 9.55577 9.33947H7.23945V12.1647H9.55577C9.93322 12.1647 10.2403 12.4698 10.2403 12.8449V20.7689ZM16.9738 2.23528H16.9739H16.9738Z" fill="#0D0D0D"/>
</svg>
