<svg width="24" height="24" viewBox="0 0 24 24" fill="none" xmlns="http://www.w3.org/2000/svg">
<path d="M9.20769 14.7592C10.2577 15.766 11.4885 16.585 12.8489 17.166L13.4544 17.4239L15.3152 15.5339C15.7772 15.0649 16.4457 14.8619 17.0909 14.9972L21.5989 15.941C22.3619 16.1032 22.9067 16.7764 22.9067 17.5557V20.8014C22.9067 21.9622 21.9664 22.9025 20.8055 22.9025H19.808C15.2184 22.9025 10.6894 21.3824 7.26403 18.328C6.98169 18.0772 6.70753 17.817 6.44036 17.551L6.48353 17.5942C6.21636 17.327 5.95736 17.0529 5.70653 16.7705C2.65103 13.3464 1.13086 8.81736 1.13086 4.22769V3.23019C1.13086 2.06936 2.07119 1.12903 3.23203 1.12903H6.47769C7.25703 1.12903 7.93019 1.67386 8.09236 2.43686L9.03736 6.94486C9.17153 7.58886 8.96969 8.25853 8.50069 8.72053L6.61069 10.5814L6.86853 11.1869C7.44953 12.546 8.19969 13.7092 9.20769 14.7592Z" stroke="#106A98" stroke-width="2" stroke-miterlimit="10" stroke-linecap="round" stroke-linejoin="round"/>
</svg>
