<svg width="24" height="24" viewBox="0 0 24 24" fill="none" xmlns="http://www.w3.org/2000/svg">
<path d="M22.6603 3.49279C22.3915 3.17498 21.989 3 21.5268 3C21.2755 3 21.0093 3.05113 20.7357 3.15225L2.11319 10.0269C1.12491 10.3916 0.99181 10.9389 1.00037 11.2327C1.00893 11.5265 1.17392 12.0657 2.18201 12.3759C2.18805 12.3777 2.19409 12.3795 2.20014 12.3811L6.06295 13.4501L8.15197 19.227C8.4368 20.0146 9.07613 20.5038 9.82069 20.5038C10.2902 20.5038 10.7519 20.3136 11.1561 19.9539L13.5454 17.8264L17.0109 20.5249C17.0112 20.5252 17.0117 20.5254 17.0121 20.5257L17.045 20.5514C17.048 20.5536 17.0512 20.5561 17.0542 20.5583C17.4394 20.8473 17.8599 20.9998 18.2706 21H18.2707C19.0732 21 19.7122 20.4256 19.8984 19.5367L22.9496 4.96647C23.0722 4.38164 22.9694 3.85833 22.6603 3.49279ZM7.3552 13.2471L14.8077 9.56524L10.1673 14.3336C10.0913 14.4117 10.0374 14.5073 10.0109 14.6114L9.11607 18.1164L7.3552 13.2471ZM10.2828 19.0368C10.2519 19.0642 10.2208 19.0887 10.1898 19.1113L11.02 15.8597L12.5301 17.0357L10.2828 19.0368ZM21.6862 4.71894L18.635 19.2893C18.6056 19.4288 18.5118 19.7532 18.2706 19.7532C18.1514 19.7532 18.0017 19.6904 17.8484 19.5763L13.9215 16.5186C13.921 16.5181 13.9203 16.5176 13.9197 16.5173L11.5831 14.6977L18.2937 7.80199C18.5086 7.58124 18.5281 7.24313 18.3399 7.00063C18.1516 6.75813 17.8103 6.68184 17.5312 6.81981L6.49398 12.2727L2.57863 11.1894L21.1955 4.31688C21.3527 4.25877 21.4625 4.2466 21.5268 4.2466C21.5662 4.2466 21.6364 4.25114 21.6624 4.28214C21.6967 4.32256 21.7403 4.46037 21.6862 4.71894Z" fill="#0D0D0D"/>
</svg>
