<svg width="26" height="24" viewBox="0 0 26 24" fill="none" xmlns="http://www.w3.org/2000/svg">
<mask id="path-1-inside-1_71_281" fill="white">
<path fill-rule="evenodd" clip-rule="evenodd" d="M22.8372 3.53844C23.914 3.82837 24.7631 4.67745 25.0531 5.75434C25.5915 7.72172 25.5708 11.8222 25.5708 11.8222C25.5708 11.8222 25.5708 15.9019 25.0531 17.8693C24.7631 18.9462 23.914 19.7952 22.8372 20.0852C20.8698 20.6029 13.0002 20.6029 13.0002 20.6029C13.0002 20.6029 5.15141 20.6029 3.16332 20.0645C2.08643 19.7745 1.23735 18.9255 0.94742 17.8486C0.429688 15.9019 0.429688 11.8015 0.429688 11.8015C0.429688 11.8015 0.429688 7.72172 0.94742 5.75434C1.23735 4.67745 2.10714 3.80766 3.16332 3.51773C5.1307 3 13.0002 3 13.0002 3C13.0002 3 20.8698 3 22.8372 3.53844ZM16.001 11.625L11.501 14.25V9L16.001 11.625Z"/>
</mask>
<path d="M25.0531 5.75434L23.1218 6.27429L23.124 6.28229L25.0531 5.75434ZM22.8372 3.53844L22.3092 5.46752L22.3172 5.46967L22.8372 3.53844ZM25.5708 11.8222L23.5708 11.8121V11.8222H25.5708ZM25.0531 17.8693L26.9843 18.3892L26.9872 18.3783L25.0531 17.8693ZM22.8372 20.0852L23.3462 22.0194L23.3571 22.0164L22.8372 20.0852ZM3.16332 20.0645L3.68615 18.134L3.68326 18.1332L3.16332 20.0645ZM0.94742 17.8486L-0.985399 18.3626L-0.983811 18.3685L0.94742 17.8486ZM0.94742 5.75434L-0.983842 5.23438L-0.986729 5.24535L0.94742 5.75434ZM3.16332 3.51773L2.65433 1.58358L2.64409 1.58628L2.63388 1.58908L3.16332 3.51773ZM11.501 14.25H9.50098V17.7321L12.5087 15.9776L11.501 14.25ZM16.001 11.625L17.0087 13.3526L19.9702 11.625L17.0087 9.89744L16.001 11.625ZM11.501 9L12.5087 7.27244L9.50098 5.51793V9H11.501ZM26.9843 5.23439C26.509 3.46919 25.1223 2.08246 23.3571 1.60721L22.3172 5.46967C22.7058 5.57429 23.0172 5.88572 23.1218 6.27428L26.9843 5.23439ZM25.5708 11.8222C27.5708 11.8323 27.5708 11.8321 27.5708 11.832C27.5708 11.8319 27.5708 11.8317 27.5708 11.8316C27.5708 11.8313 27.5708 11.8309 27.5708 11.8305C27.5708 11.8296 27.5708 11.8285 27.5708 11.8272C27.5708 11.8245 27.5708 11.8208 27.5708 11.8162C27.5709 11.8069 27.5709 11.7938 27.5709 11.777C27.5709 11.7434 27.5709 11.6951 27.5706 11.6338C27.5701 11.5111 27.5687 11.3356 27.5654 11.1196C27.5586 10.6885 27.5439 10.0915 27.5115 9.42838C27.4497 8.16416 27.3159 6.44586 26.9821 5.22638L23.124 6.28229C23.3287 7.0302 23.4538 8.34582 23.5162 9.62366C23.5459 10.2316 23.5596 10.7827 23.5659 11.1819C23.569 11.3811 23.5702 11.5413 23.5706 11.6505C23.5709 11.7051 23.5709 11.7469 23.5709 11.7743C23.5709 11.788 23.5709 11.7982 23.5708 11.8045C23.5708 11.8077 23.5708 11.8099 23.5708 11.8112C23.5708 11.8118 23.5708 11.8122 23.5708 11.8124C23.5708 11.8124 23.5708 11.8125 23.5708 11.8124C23.5708 11.8124 23.5708 11.8123 23.5708 11.8123C23.5708 11.8122 23.5708 11.8121 25.5708 11.8222ZM26.9872 18.3783C27.3048 17.1714 27.4391 15.4698 27.5035 14.2101C27.5372 13.551 27.5539 12.9578 27.5623 12.5295C27.5665 12.3149 27.5686 12.1406 27.5697 12.0188C27.5702 11.9579 27.5705 11.9101 27.5706 11.8768C27.5707 11.8602 27.5708 11.8472 27.5708 11.838C27.5708 11.8334 27.5708 11.8298 27.5708 11.8271C27.5708 11.8258 27.5708 11.8247 27.5708 11.8239C27.5708 11.8235 27.5708 11.8231 27.5708 11.8228C27.5708 11.8227 27.5708 11.8225 27.5708 11.8225C27.5708 11.8223 27.5708 11.8222 25.5708 11.8222C23.5708 11.8222 23.5708 11.8221 23.5708 11.822C23.5708 11.822 23.5708 11.8219 23.5708 11.8219C23.5708 11.8218 23.5708 11.8218 23.5708 11.8219C23.5708 11.8221 23.5708 11.8225 23.5708 11.8231C23.5708 11.8244 23.5708 11.8267 23.5708 11.8299C23.5708 11.8363 23.5707 11.8464 23.5707 11.8601C23.5706 11.8876 23.5703 11.9293 23.5699 11.9838C23.5689 12.0928 23.567 12.2526 23.5631 12.4512C23.5553 12.8493 23.5397 13.3991 23.5087 14.0058C23.4437 15.2778 23.319 16.5998 23.1189 17.3603L26.9872 18.3783ZM23.3571 22.0164C25.1223 21.5412 26.509 20.1544 26.9843 18.3892L23.1218 17.3493C23.0172 17.7379 22.7058 18.0493 22.3172 18.1539L23.3571 22.0164ZM13.0002 20.6029C13.0002 22.6029 13.0003 22.6029 13.0005 22.6029C13.0005 22.6029 13.0007 22.6029 13.0009 22.6029C13.0012 22.6029 13.0016 22.6029 13.0022 22.6029C13.0033 22.6029 13.0049 22.6029 13.007 22.6029C13.0111 22.6029 13.0171 22.6029 13.025 22.6029C13.0407 22.6029 13.0636 22.6028 13.0934 22.6028C13.1531 22.6027 13.2402 22.6024 13.3515 22.6019C13.5739 22.6009 13.893 22.5988 14.2816 22.5947C15.0582 22.5865 16.1165 22.5702 17.2394 22.5373C18.3591 22.5046 19.5588 22.455 20.6133 22.3794C21.6127 22.3076 22.6499 22.2026 23.3461 22.0193L22.3282 18.151C22.0407 18.2267 21.3564 18.3157 20.327 18.3896C19.3527 18.4596 18.2161 18.5071 17.1225 18.5391C16.032 18.5709 15 18.5869 14.2395 18.5949C13.8597 18.5989 13.5486 18.6009 13.333 18.6019C13.2252 18.6024 13.1413 18.6027 13.0847 18.6028C13.0565 18.6029 13.035 18.6029 13.0208 18.6029C13.0136 18.6029 13.0083 18.6029 13.0049 18.6029C13.0032 18.6029 13.0019 18.6029 13.0012 18.6029C13.0008 18.6029 13.0005 18.6029 13.0003 18.6029C13.0003 18.6029 13.0002 18.6029 13.0002 18.6029C13.0002 18.6029 13.0002 18.6029 13.0002 20.6029ZM2.64049 21.9949C3.34578 22.1859 4.38871 22.2955 5.39034 22.3702C6.44732 22.449 7.64749 22.5006 8.76645 22.5347C9.88865 22.5688 10.9455 22.5859 11.7209 22.5944C12.1089 22.5986 12.4274 22.6008 12.6495 22.6018C12.7605 22.6024 12.8475 22.6026 12.9071 22.6028C12.9369 22.6028 12.9598 22.6029 12.9755 22.6029C12.9833 22.6029 12.9893 22.6029 12.9935 22.6029C12.9955 22.6029 12.9971 22.6029 12.9983 22.6029C12.9988 22.6029 12.9993 22.6029 12.9996 22.6029C12.9998 22.6029 12.9999 22.6029 13 22.6029C13.0001 22.6029 13.0002 22.6029 13.0002 20.6029C13.0002 18.6029 13.0003 18.6029 13.0003 18.6029C13.0002 18.6029 13.0002 18.6029 13.0001 18.6029C13 18.6029 12.9997 18.6029 12.9993 18.6029C12.9986 18.6029 12.9973 18.6029 12.9956 18.6029C12.9922 18.6029 12.9869 18.6029 12.9799 18.6029C12.9657 18.6029 12.9443 18.6029 12.9161 18.6028C12.8598 18.6027 12.7762 18.6024 12.6687 18.6019C12.4538 18.6009 12.1436 18.5988 11.7647 18.5946C11.0063 18.5863 9.9767 18.5697 8.88817 18.5365C7.79642 18.5033 6.66161 18.4539 5.68779 18.3813C4.65861 18.3046 3.9749 18.2122 3.68615 18.134L2.64049 21.9949ZM-0.983811 18.3685C-0.508566 20.1337 0.878169 21.5205 2.64337 21.9957L3.68326 18.1332C3.2947 18.0286 2.98327 17.7172 2.87865 17.3286L-0.983811 18.3685ZM0.429688 11.8015C-1.57031 11.8015 -1.57031 11.8016 -1.57031 11.8018C-1.57031 11.8018 -1.57031 11.802 -1.57031 11.8021C-1.57031 11.8024 -1.57031 11.8028 -1.57031 11.8032C-1.57031 11.804 -1.57031 11.8051 -1.57031 11.8064C-1.57031 11.8091 -1.5703 11.8127 -1.57029 11.8173C-1.57027 11.8265 -1.57024 11.8396 -1.57017 11.8563C-1.57003 11.8897 -1.56976 11.9377 -1.56923 11.9989C-1.56816 12.1212 -1.56604 12.2962 -1.56184 12.5116C-1.55346 12.9414 -1.53669 13.5365 -1.503 14.1969C-1.4387 15.4572 -1.30456 17.1626 -0.985391 18.3626L2.88023 17.3345C2.68166 16.5879 2.55694 15.2697 2.49181 13.9931C2.46078 13.385 2.44519 12.8334 2.4374 12.4336C2.43351 12.2341 2.43158 12.0736 2.43062 11.964C2.43015 11.9093 2.42991 11.8673 2.4298 11.8397C2.42974 11.8259 2.42971 11.8157 2.4297 11.8092C2.42969 11.806 2.42969 11.8037 2.42969 11.8024C2.42969 11.8018 2.42969 11.8014 2.42969 11.8012C2.42969 11.8011 2.42969 11.8011 2.42969 11.8011C2.42969 11.8012 2.42969 11.8012 2.42969 11.8013C2.42969 11.8013 2.42969 11.8015 0.429688 11.8015ZM-0.986729 5.24535C-1.30432 6.45221 -1.43858 8.15379 -1.50299 9.41355C-1.53668 10.0726 -1.55345 10.6658 -1.56184 11.0941C-1.56604 11.3087 -1.56816 11.483 -1.56922 11.6048C-1.56976 11.6657 -1.57003 11.7136 -1.57017 11.7468C-1.57024 11.7635 -1.57027 11.7765 -1.57029 11.7856C-1.5703 11.7902 -1.57031 11.7938 -1.57031 11.7965C-1.57031 11.7978 -1.57031 11.7989 -1.57031 11.7997C-1.57031 11.8001 -1.57031 11.8005 -1.57031 11.8008C-1.57031 11.8009 -1.57031 11.8011 -1.57031 11.8012C-1.57031 11.8013 -1.57031 11.8015 0.429688 11.8015C2.42969 11.8015 2.42969 11.8016 2.42969 11.8017C2.42969 11.8017 2.42969 11.8017 2.42969 11.8018C2.42969 11.8018 2.42969 11.8018 2.42969 11.8017C2.42969 11.8015 2.42969 11.8011 2.42969 11.8005C2.42969 11.7992 2.42969 11.797 2.4297 11.7938C2.42971 11.7874 2.42974 11.7772 2.4298 11.7635C2.42991 11.736 2.43014 11.6943 2.43062 11.6398C2.43158 11.5308 2.43351 11.371 2.43739 11.1724C2.44519 10.7743 2.46077 10.2246 2.4918 9.61778C2.55682 8.34583 2.68143 7.02385 2.88157 6.26332L-0.986729 5.24535ZM2.63388 1.58908C0.891073 2.0675 -0.510187 3.47522 -0.983811 5.23439L2.87865 6.27428C2.98489 5.87969 3.32321 5.54783 3.69275 5.44639L2.63388 1.58908ZM13.0002 3C13.0002 1 13.0001 1 13 1C12.9999 1 12.9998 1 12.9996 1C12.9993 1 12.9989 1 12.9983 1C12.9972 1 12.9956 1 12.9935 1C12.9893 1 12.9833 1.00001 12.9755 1.00002C12.9598 1.00003 12.9369 1.00007 12.907 1.00013C12.8474 1.00026 12.7603 1.00052 12.649 1.00103C12.4266 1.00206 12.1075 1.00411 11.7188 1.0082C10.9422 1.01638 9.88393 1.03274 8.76109 1.06557C7.6414 1.09831 6.44173 1.14786 5.38715 1.22355C4.38776 1.29528 3.3506 1.40036 2.65433 1.58358L3.6723 5.45188C3.95973 5.37624 4.64403 5.28717 5.6735 5.21329C6.64779 5.14336 7.78439 5.09584 8.878 5.06386C9.96846 5.03198 11.0005 5.01598 11.7609 5.00798C12.1408 5.00398 12.4519 5.00199 12.6675 5.00099C12.7753 5.00049 12.8591 5.00024 12.9157 5.00012C12.944 5.00006 12.9655 5.00003 12.9797 5.00001C12.9868 5.00001 12.9921 5 12.9956 5C12.9973 5 12.9985 5 12.9993 5C12.9997 5 13 5 13.0001 5C13.0002 5 13.0002 5 13.0003 5C13.0003 5 13.0002 5 13.0002 3ZM23.3651 1.60938C22.6618 1.4169 21.6182 1.30728 20.619 1.2327C19.5629 1.15387 18.3619 1.10229 17.2417 1.06823C16.1182 1.03406 15.0594 1.01704 14.2825 1.00853C13.8936 1.00428 13.5744 1.00214 13.3518 1.00107C13.2405 1.00054 13.1533 1.00027 13.0936 1.00014C13.0638 1.00007 13.0408 1.00003 13.0251 1.00002C13.0172 1.00001 13.0112 1 13.007 1C13.005 1 13.0033 1 13.0022 1C13.0016 1 13.0012 1 13.0009 1C13.0007 1 13.0005 1 13.0005 1C13.0003 1 13.0002 1 13.0002 3C13.0002 5 13.0002 5 13.0002 5C13.0002 5 13.0003 5 13.0003 5C13.0005 5 13.0007 5 13.0011 5C13.0019 5 13.0032 5 13.0049 5C13.0083 5 13.0136 5.00001 13.0207 5.00002C13.0349 5.00003 13.0563 5.00006 13.0846 5.00013C13.1411 5.00025 13.2249 5.00051 13.3326 5.00103C13.5481 5.00206 13.8591 5.00414 14.2387 5.00829C14.9988 5.01661 16.0303 5.03324 17.1201 5.06638C18.2132 5.09962 19.3486 5.149 20.3213 5.22161C21.351 5.29847 22.0288 5.39076 22.3092 5.4675L23.3651 1.60938ZM12.5087 15.9776L17.0087 13.3526L14.9932 9.89744L10.4932 12.5224L12.5087 15.9776ZM9.50098 9V14.25H13.501V9H9.50098ZM17.0087 9.89744L12.5087 7.27244L10.4932 10.7276L14.9932 13.3526L17.0087 9.89744Z" fill="#0D0D0D" mask="url(#path-1-inside-1_71_281)"/>
</svg>
